# Blender v2.69 (sub 0) OBJ File: 'models3.blend'
# www.blender.org
o Cube.006_Cube
v 0.109709 0.684466 -0.431307
v 0.109709 0.676687 -0.465470
v 1.062602 0.676687 -0.465470
v 1.062602 0.684466 -0.431307
v 0.109709 1.471879 -0.610609
v 0.109709 1.464099 -0.644772
v 1.062602 1.464099 -0.644772
v 1.062602 1.471879 -0.610609
v 0.646493 0.005232 -0.445480
v 0.646493 0.004091 -0.324810
v 0.646493 0.874073 -0.643962
v 0.646493 0.900729 -0.526268
v 0.646493 0.645412 -0.592173
v 0.646493 0.672068 -0.474479
v 0.646493 0.547125 -0.569913
v 0.646493 0.573781 -0.452219
v 0.837874 0.645412 -0.592173
v 0.837874 0.672068 -0.474479
v 0.837874 0.547125 -0.569913
v 0.837874 0.573781 -0.452219
v 0.946466 0.645412 -0.592173
v 0.946466 0.672068 -0.474479
v 0.946466 0.547125 -0.569913
v 0.946466 0.573781 -0.452219
v 0.943942 0.004878 -0.445483
v 0.943942 0.003737 -0.324814
v 1.052534 0.004878 -0.445483
v 1.052534 0.003737 -0.324814
v 0.646493 0.682757 -0.428452
v 0.646493 0.578438 -0.431658
v 0.837874 0.682757 -0.428452
v 0.837874 0.578438 -0.431658
v 0.946466 0.683436 -0.424290
v 0.946466 0.585148 -0.402030
v 0.646493 0.690465 -0.393253
v 0.646493 0.592178 -0.370992
v 0.837874 0.690465 -0.393253
v 0.837874 0.592178 -0.370992
v 0.946466 0.690465 -0.393253
v 0.946466 0.592178 -0.370992
v 0.646493 0.702531 -0.428615
v 0.837874 0.702531 -0.428615
v 0.928764 0.702531 -0.428615
v 0.646493 0.709561 -0.397578
v 0.837874 0.709561 -0.397578
v 0.928764 0.709561 -0.397578
v 0.646493 1.423355 -0.768366
v 0.646493 1.450011 -0.650673
v 0.646493 1.501275 -0.786014
v 0.646493 1.527930 -0.668320
v 0.786209 0.892446 -0.648123
v 0.786209 0.919102 -0.530429
v 0.894801 0.892446 -0.648123
v 0.894801 0.919102 -0.530429
v 0.646493 0.639380 -0.625921
v 0.646493 0.538605 -0.625329
v 0.646493 0.601954 -0.681934
v 0.646493 0.552489 -0.714659
v 0.646493 0.010504 -0.718681
v 0.646493 0.010235 -0.809083
v 0.525818 0.005232 -0.445480
v 0.525818 0.004091 -0.324810
v 0.525818 0.874073 -0.643962
v 0.525818 0.900729 -0.526268
v 0.525818 0.645412 -0.592173
v 0.525818 0.672068 -0.474479
v 0.525818 0.547125 -0.569913
v 0.525818 0.573781 -0.452219
v 0.334437 0.645412 -0.592173
v 0.334437 0.672068 -0.474479
v 0.334437 0.547125 -0.569913
v 0.334437 0.573781 -0.452219
v 0.225845 0.645412 -0.592173
v 0.225845 0.672068 -0.474479
v 0.225845 0.547125 -0.569913
v 0.225845 0.573781 -0.452219
v 0.586156 0.874073 -0.643962
v 0.586156 0.005232 -0.445480
v 0.586156 0.900729 -0.526268
v 0.586156 0.004091 -0.324810
v 0.586156 0.645412 -0.592173
v 0.586156 0.672068 -0.474479
v 0.586156 0.547125 -0.569913
v 0.586156 0.573781 -0.452219
v 0.228369 0.004878 -0.445483
v 0.228369 0.003737 -0.324814
v 0.119777 0.004878 -0.445483
v 0.119777 0.003737 -0.324814
v 0.525818 0.682757 -0.428452
v 0.525818 0.578438 -0.431658
v 0.334437 0.682757 -0.428452
v 0.334437 0.578438 -0.431658
v 0.225845 0.683436 -0.424290
v 0.225845 0.585148 -0.402030
v 0.586156 0.682757 -0.428452
v 0.586156 0.578438 -0.431658
v 0.525818 0.690465 -0.393253
v 0.525818 0.592178 -0.370992
v 0.334437 0.690465 -0.393253
v 0.334437 0.592178 -0.370992
v 0.225845 0.690465 -0.393253
v 0.225845 0.592178 -0.370992
v 0.586156 0.690465 -0.393253
v 0.586156 0.592178 -0.370992
v 0.525818 0.702531 -0.428615
v 0.334437 0.702531 -0.428615
v 0.243547 0.702531 -0.428615
v 0.586156 0.702531 -0.428615
v 0.525818 0.709561 -0.397578
v 0.334437 0.709561 -0.397578
v 0.243547 0.709561 -0.397578
v 0.586156 0.709561 -0.397578
v 0.525818 1.423355 -0.768366
v 0.525818 1.450011 -0.650673
v 0.586156 1.423355 -0.768366
v 0.586156 1.450011 -0.650673
v 0.525818 1.501275 -0.786014
v 0.525818 1.527930 -0.668320
v 0.586156 1.501275 -0.786014
v 0.586156 1.527930 -0.668320
v 0.386102 0.892446 -0.648123
v 0.386102 0.919102 -0.530429
v 0.277510 0.892446 -0.648123
v 0.277510 0.919102 -0.530429
v 0.525818 0.639380 -0.625921
v 0.525818 0.538605 -0.625329
v 0.586156 0.639380 -0.625921
v 0.586156 0.538605 -0.625329
v 0.525818 0.601954 -0.681934
v 0.525818 0.552489 -0.714659
v 0.586156 0.601954 -0.681934
v 0.586156 0.552489 -0.714659
v 0.525818 0.010504 -0.718681
v 0.586156 0.010504 -0.718681
v 0.525818 0.010235 -0.809083
v 0.586156 0.010235 -0.809083
vt 0.906153 0.379725
vt 0.906153 0.129750
vt 0.656178 0.379725
vt 0.055994 0.418786
vt 0.500551 0.419656
vt 0.057167 0.043316
vt 0.656178 0.129750
vt 0.500774 0.421026
vt 0.056217 0.420156
vt 0.501947 0.045556
vt 0.233132 0.674404
vt 0.232177 0.689903
vt 0.204360 0.674380
vt 0.211947 0.722339
vt 0.179840 0.690942
vt 0.178507 0.674352
vt 0.267749 0.933575
vt 0.277937 0.929922
vt 0.265035 0.960009
vt 0.278718 0.910407
vt 0.294687 0.944526
vt 0.263394 0.754435
vt 0.288418 0.722257
vt 0.325633 0.727641
vt 0.348380 0.769706
vt 0.256670 0.816801
vt 0.287298 0.830552
vt 0.280788 0.845073
vt 0.235755 0.683555
vt 0.293561 0.898617
vt 0.361103 0.948693
vt 0.407370 0.657013
vt 0.372563 0.657013
vt 0.407369 0.649838
vt 0.400948 0.917639
vt 0.364922 0.910094
vt 0.404544 0.900681
vt 0.291083 0.714058
vt 0.326867 0.719444
vt 0.289435 0.696278
vt 0.202616 0.792523
vt 0.185541 0.784865
vt 0.220921 0.751723
vt 0.270543 0.906449
vt 0.304839 0.789576
vt 0.320752 0.762382
vt 0.335445 0.803314
vt 0.372563 0.649838
vt 0.373021 0.598208
vt 0.253994 0.822750
vt 0.276761 0.854055
vt 0.188901 0.823088
vt 0.242962 0.847335
vt 0.188289 0.824453
vt 0.357721 0.649838
vt 0.367822 0.894902
vt 0.199939 0.798481
vt 0.182875 0.790830
vt 0.271983 0.892411
vt 0.298030 0.881170
vt 0.192053 0.816058
vt 0.246113 0.840310
vt 0.273613 0.861076
vt 0.171847 0.815446
vt 0.357721 0.657013
vt 0.348542 0.649838
vt 0.242350 0.848699
vt 0.174997 0.808415
vt 0.408322 0.889762
vt 0.402026 0.887584
vt 0.398697 0.898096
vt 0.368244 0.892628
vt 0.298545 0.878861
vt 0.370440 0.881336
vt 0.276819 0.873530
vt 0.301143 0.867352
vt 0.171235 0.816812
vt 0.276259 0.875815
vt 0.269299 0.918496
vt 0.269574 0.918649
vt 0.269480 0.919036
vt 0.269500 0.918699
vt 0.269423 0.918979
vt 0.269288 0.918602
vt 0.269235 0.919092
vt 0.275885 0.675872
vt 0.312943 0.696277
vt 0.343437 0.927248
vt 0.372563 0.680408
vt 0.258697 0.696917
vt 0.357973 0.820100
vt 0.363483 0.801966
vt 0.376260 0.826701
vt 0.348542 0.846992
vt 0.355219 0.827875
vt 0.359393 0.850782
vt 0.380086 0.857666
vt 0.385622 0.839467
vt 0.394323 0.861076
vt 0.398154 0.843493
vt 0.448527 0.845831
vt 0.365847 0.831582
vt 0.441448 0.834718
vt 0.459455 0.820486
vt 0.465653 0.861077
vt 0.380466 0.806620
vt 0.232195 0.658908
vt 0.204599 0.664638
vt 0.179882 0.657768
vt 0.258516 0.927925
vt 0.239147 0.938820
vt 0.261725 0.908663
vt 0.351537 0.782544
vt 0.366080 0.789532
vt 0.348542 0.789065
vt 0.212042 0.626460
vt 0.263499 0.594502
vt 0.288431 0.626686
vt 0.320789 0.586679
vt 0.348380 0.579416
vt 0.114149 0.752865
vt 0.111469 0.758848
vt 0.076788 0.753670
vt 0.235757 0.665254
vt 0.173280 0.929387
vt 0.249591 0.894102
vt 0.148522 0.935521
vt 0.139566 0.936678
vt 0.142910 0.892076
vt 0.140590 0.890882
vt 0.140518 0.873549
vt 0.177394 0.890822
vt 0.325600 0.621374
vt 0.291078 0.634880
vt 0.326818 0.629562
vt 0.312876 0.652672
vt 0.289402 0.652632
vt 0.168448 0.777201
vt 0.186755 0.736395
vt 0.383348 0.736593
vt 0.383348 0.776694
vt 0.348542 0.736594
vt 0.372563 0.687746
vt 0.358935 0.687764
vt 0.372563 0.680570
vt 0.304957 0.559499
vt 0.335525 0.545850
vt 0.083325 0.739065
vt 0.071538 0.684650
vt 0.077020 0.944180
vt 0.069584 0.902129
vt 0.103563 0.776499
vt 0.072745 0.762702
vt 0.154701 0.807877
vt 0.154087 0.809248
vt 0.100402 0.783558
vt 0.348542 0.687746
vt 0.366483 0.680570
vt 0.133954 0.893233
vt 0.131562 0.874705
vt 0.177645 0.875359
vt 0.165766 0.783177
vt 0.182870 0.790841
vt 0.248763 0.876110
vt 0.157861 0.800820
vt 0.069584 0.769762
vt 0.171814 0.815537
vt 0.130083 0.863247
vt 0.099788 0.784930
vt 0.174973 0.808481
vt 0.139040 0.862091
vt 0.145647 0.861239
vt 0.146768 0.872207
vt 0.177694 0.873047
vt 0.177840 0.861546
vt 0.248729 0.873744
vt 0.248526 0.861947
vt 0.271086 0.872941
vt 0.171200 0.816908
vt 0.357721 0.689140
vt 0.348542 0.689140
vt 0.271170 0.875292
vt 0.383348 0.782382
vt 0.348542 0.776694
vt 0.269297 0.918495
vt 0.268996 0.918585
vt 0.269006 0.918984
vt 0.269058 0.918650
vt 0.269286 0.918601
vt 0.269074 0.918940
vt 0.269234 0.919091
vt 0.275837 0.672984
vt 0.194939 0.911985
vt 0.172111 0.888304
vt 0.258710 0.651942
vt 0.387122 0.801804
vt 0.374674 0.799300
vt 0.352707 0.579197
vt 0.371913 0.576181
vt 0.354681 0.598046
vt 0.348542 0.551006
vt 0.359915 0.549340
vt 0.351476 0.571041
vt 0.362614 0.569415
vt 0.381537 0.546501
vt 0.396162 0.545850
vt 0.383524 0.565420
vt 0.396592 0.563841
vt 0.446496 0.571090
vt 0.437440 0.580661
vt 0.452423 0.598046
vt 0.435212 0.782544
vt 0.457752 0.794441
vt 0.466200 0.559365
vt 0.372239 0.596695
vt 0.501724 0.044186
vt 0.057391 0.044686
vt 0.204579 0.684123
vt 0.203839 0.744059
vt 0.406914 0.599787
vt 0.348542 0.657013
vt 0.268005 0.860201
vt 0.279564 0.862148
vt 0.269246 0.918994
vt 0.302612 0.666575
vt 0.379463 0.934793
vt 0.407370 0.680408
vt 0.357471 0.793290
vt 0.102366 0.698450
vt 0.348542 0.680570
vt 0.073994 0.773383
vt 0.270712 0.861239
vt 0.348542 0.782382
vt 0.269244 0.918994
vt 0.302510 0.682313
vt 0.158135 0.912045
vt 0.177723 0.931749
vn -1.000000 0.000000 0.000000
vn 0.000000 -0.222027 -0.975041
vn 1.000000 0.000000 0.000000
vn 0.000000 0.222027 0.975041
vn 0.000000 -0.975041 0.222027
vn 0.000000 0.975040 -0.222030
vn 0.000000 -0.223802 -0.974635
vn 0.000000 -0.999955 -0.009451
vn 0.000000 -0.220892 -0.975298
vn 0.000000 -0.975299 0.220891
vn 0.000000 -0.223657 -0.974668
vn 0.000000 -0.975299 0.220890
vn 0.000000 -0.220891 -0.975298
vn -0.000000 0.975299 -0.220890
vn 0.000000 0.975298 -0.220893
vn 0.000000 -0.220891 -0.975299
vn 0.000000 0.218253 0.975892
vn 0.000000 0.220891 0.975298
vn 0.000000 -0.999955 -0.009452
vn 0.000000 0.218119 0.975922
vn 0.983909 0.174255 -0.039466
vn -0.983909 -0.174255 0.039466
vn 0.000000 0.974082 -0.226196
vn 0.000000 -0.975298 0.220895
vn 0.000000 -0.975298 0.220893
vn 0.000000 0.974081 -0.226198
vn 0.000000 0.220892 0.975298
vn 0.000000 -0.975298 0.220892
vn 0.741775 0.654083 -0.148138
vn 0.000000 0.975299 -0.220888
vn 0.000000 0.975299 -0.220889
vn 0.000000 0.975298 -0.220894
vn 0.038348 -0.008234 -0.999231
vn 0.000000 -0.008241 -0.999966
vn 0.000000 0.975298 -0.220892
vn 0.000000 0.220893 0.975298
vn 0.000000 0.975298 -0.220891
vn 0.000000 0.220891 0.975299
vn 0.979825 0.194922 -0.044147
vn -0.979825 -0.194922 0.044147
vn 0.000000 -0.988387 0.151959
vn 0.000000 0.984397 -0.175960
vn 1.000000 -0.000001 0.000000
vn 0.000000 0.551764 -0.834000
vn 0.000000 0.831473 -0.555565
vn 0.000000 -0.999996 0.002974
vn 0.000000 0.171550 -0.985175
vn 0.000000 -0.174070 0.984733
vn -0.981321 0.192371 0.001818
vn 0.983909 -0.174255 0.039466
vn -0.741776 0.654082 -0.148138
vn 1.000000 0.000006 0.000000
vn -1.000000 0.000001 0.000000
vn -0.979825 0.194922 -0.044147
vn 0.979825 -0.194922 0.044147
vn -1.000000 -0.000001 0.000000
vn 0.000000 0.171551 -0.985175
vn 0.000000 -0.975298 0.220891
vn 0.000000 -0.975297 0.220899
vn 0.002579 0.974078 -0.226196
vn 0.000000 0.218254 0.975892
vn 0.981321 0.192371 0.001818
vn -0.981321 -0.192372 -0.001818
vn 0.000000 0.220890 0.975299
vn 1.000000 0.000001 0.000000
vn 0.000000 0.974081 -0.226199
vn 0.000000 -0.975299 0.220888
vn 0.741773 0.654084 -0.148143
vn 0.979825 0.194923 -0.044147
vn -0.979825 -0.194923 0.044147
vn 0.000000 -0.988387 0.151961
vn 0.000000 0.984397 -0.175964
vn 0.000000 0.551763 -0.834001
vn 0.000000 0.831472 -0.555568
vn 1.000000 0.000002 0.000000
vn -0.002579 0.974078 -0.226196
vn -0.983909 0.174255 -0.039466
vn 0.981321 -0.192371 -0.001818
vn -0.000000 -0.975298 0.220894
vn 0.000000 0.974081 -0.226200
vn -0.741774 0.654083 -0.148141
vn -0.038348 -0.008235 -0.999231
vn 0.000000 -0.988386 0.151961
s off
f 5/1/1 6/2/1 1/3/1
f 6/4/2 7/5/2 2/6/2
f 7/7/3 8/3/3 3/2/3
f 8/8/4 5/9/4 4/10/4
f 1/3/5 2/7/5 4/1/5
f 8/3/6 7/7/6 5/1/6
f 83/11/7 15/12/7 78/13/7
f 15/12/3 16/14/3 10/15/3
f 80/16/8 78/13/8 10/15/8
f 77/17/9 11/18/9 81/19/9
f 11/18/3 12/20/3 13/21/3
f 16/14/10 15/12/10 20/22/10
f 19/23/11 23/24/11 27/25/11
f 20/26/12 24/27/12 34/28/12
f 15/12/13 13/29/13 19/23/13
f 13/21/14 14/30/14 17/31/14
f 21/32/3 22/33/3 23/34/3
f 22/35/15 18/36/15 33/37/15
f 19/23/13 17/38/13 23/24/13
f 21/39/16 17/38/16 51/40/16
f 16/41/17 84/42/17 10/43/17
f 12/20/18 79/44/18 14/30/18
f 26/45/19 25/46/19 28/47/19
f 24/27/20 20/26/20 28/47/20
f 23/34/21 24/48/21 28/49/21
f 20/22/22 19/23/22 26/45/22
f 32/50/12 34/28/12 40/51/12
f 35/52/18 37/53/18 44/54/18
f 24/48/3 22/33/3 34/55/3
f 18/36/23 14/30/23 31/56/23
f 16/41/24 20/26/24 30/57/24
f 84/42/25 16/41/25 96/58/25
f 14/30/26 82/59/26 29/60/26
f 35/52/27 36/61/27 37/53/27
f 37/53/27 38/62/27 39/63/27
f 35/52/18 103/64/18 36/61/18
f 34/55/3 33/65/3 40/66/3
f 37/53/18 39/63/18 45/67/18
f 30/57/25 32/50/25 36/61/25
f 96/58/28 30/57/28 104/68/28
f 39/69/29 33/37/29 46/70/29
f 43/71/30 42/72/30 46/70/30
f 42/72/31 41/73/31 45/74/31
f 41/73/32 108/75/32 44/76/32
f 103/64/18 35/52/18 112/77/18
f 33/37/33 31/56/33 42/72/33
f 31/56/34 29/60/34 42/72/34
f 29/60/34 95/78/34 41/73/34
f 79/44/27 12/20/27 116/79/27
f 12/20/3 11/18/3 48/80/3
f 11/18/13 77/17/13 47/81/13
f 50/82/35 49/83/35 120/84/35
f 116/79/36 48/80/36 120/84/36
f 48/80/3 47/81/3 49/83/3
f 47/81/13 115/85/13 49/83/13
f 51/40/37 52/86/37 53/87/37
f 18/36/38 22/35/38 52/88/38
f 22/33/39 21/32/39 54/89/39
f 17/38/40 18/90/40 51/40/40
f 15/91/41 83/92/41 56/93/41
f 81/94/42 13/95/42 127/96/42
f 13/95/43 15/91/43 56/93/43
f 131/97/44 57/98/44 132/99/44
f 58/100/3 56/93/3 60/101/3
f 127/96/45 55/102/45 131/97/45
f 55/102/43 56/93/43 57/98/43
f 59/103/46 134/104/46 60/101/46
f 132/99/47 58/100/47 136/105/47
f 56/93/48 128/106/48 59/103/48
f 83/11/7 78/13/7 67/107/7
f 67/107/1 61/108/1 62/109/1
f 80/16/8 62/109/8 78/13/8
f 77/17/9 81/19/9 63/110/9
f 63/110/1 65/111/1 64/112/1
f 83/113/43 128/114/43 81/115/43
f 68/116/10 72/117/10 67/107/10
f 71/118/11 85/119/11 87/120/11
f 72/121/25 92/122/25 94/123/25
f 67/107/13 71/118/13 65/124/13
f 65/111/14 69/125/14 66/126/14
f 73/127/1 75/128/1 74/129/1
f 74/130/35 93/131/35 70/132/35
f 71/118/13 75/133/13 69/134/13
f 73/135/13 123/136/13 121/137/13
f 68/138/17 62/139/17 84/42/17
f 77/140/3 115/141/3 79/142/3
f 64/112/18 66/126/18 79/44/18
f 82/143/3 95/144/3 84/145/3
f 86/146/19 88/147/19 85/119/19
f 76/148/20 88/149/20 72/121/20
f 75/128/49 87/150/49 88/151/49
f 72/117/50 86/146/50 71/118/50
f 92/122/10 100/152/10 102/153/10
f 97/154/18 109/155/18 99/156/18
f 95/144/43 103/157/43 96/158/43
f 76/159/1 94/160/1 74/129/1
f 70/132/23 91/161/23 66/126/23
f 68/138/24 90/162/24 72/121/24
f 84/42/25 96/163/25 68/138/25
f 66/126/26 89/164/26 82/59/26
f 97/154/27 99/156/27 98/165/27
f 99/156/27 101/166/27 100/152/27
f 97/154/18 98/165/18 103/167/18
f 94/160/1 102/168/1 93/131/1
f 99/156/38 110/169/38 101/166/38
f 90/162/25 98/165/25 92/122/25
f 96/163/28 104/170/28 90/162/28
f 101/171/51 111/172/51 93/131/51
f 107/173/30 111/172/30 106/174/30
f 106/174/14 110/175/14 105/176/14
f 105/176/15 109/177/15 108/178/15
f 103/167/18 112/179/18 97/154/18
f 93/131/13 107/173/13 106/174/13
f 91/161/34 106/174/34 89/164/34
f 95/144/52 108/180/52 112/181/52
f 89/164/34 105/176/34 95/182/34
f 115/141/3 119/183/3 116/184/3
f 79/44/27 116/185/27 64/112/27
f 64/112/1 114/186/1 63/110/1
f 63/110/13 113/187/13 77/17/13
f 118/188/35 120/189/35 117/190/35
f 116/185/27 120/189/27 114/186/27
f 114/186/53 118/188/53 117/190/53
f 113/187/9 117/190/9 115/191/9
f 121/137/37 123/136/37 122/192/37
f 70/132/18 122/193/18 74/130/18
f 74/129/54 124/194/54 73/127/54
f 69/134/55 121/137/55 70/195/55
f 128/114/3 132/196/3 131/197/3
f 67/198/41 126/199/41 83/200/41
f 81/201/42 127/202/42 65/203/42
f 65/203/1 125/204/1 126/199/1
f 131/205/44 132/206/44 129/207/44
f 130/208/1 135/209/1 126/199/1
f 127/202/45 131/205/45 125/204/45
f 125/204/56 129/207/56 126/199/56
f 133/210/46 135/209/46 134/211/46
f 128/114/3 134/212/3 136/213/3
f 132/206/57 136/214/57 130/208/57
f 126/199/48 133/210/48 128/215/48
f 6/2/1 2/7/1 1/3/1
f 7/5/2 3/216/2 2/6/2
f 8/3/3 4/1/3 3/2/3
f 5/9/4 1/217/4 4/10/4
f 2/7/5 3/2/5 4/1/5
f 7/7/6 6/2/6 5/1/6
f 15/12/7 9/218/7 78/13/7
f 9/218/3 15/12/3 10/15/3
f 78/13/8 9/218/8 10/15/8
f 11/18/13 13/21/13 81/19/13
f 12/20/3 14/30/3 13/21/3
f 15/12/58 19/23/58 20/22/58
f 25/46/11 19/23/11 27/25/11
f 32/50/59 20/26/59 34/28/59
f 13/29/13 17/38/13 19/23/13
f 14/30/35 18/36/35 17/31/35
f 22/33/3 24/48/3 23/34/3
f 18/36/60 31/56/60 33/37/60
f 17/38/13 21/39/13 23/24/13
f 53/87/13 21/39/13 51/40/13
f 84/42/61 80/219/61 10/43/61
f 79/44/18 82/59/18 14/30/18
f 25/46/19 27/25/19 28/47/19
f 20/26/20 26/45/20 28/47/20
f 27/220/62 23/34/62 28/49/62
f 19/23/63 25/46/63 26/45/63
f 38/62/25 32/50/25 40/51/25
f 37/53/64 45/67/64 44/54/64
f 22/33/65 33/65/65 34/55/65
f 14/30/66 29/60/66 31/56/66
f 20/26/67 32/50/67 30/57/67
f 16/41/25 30/57/25 96/58/25
f 82/59/66 95/78/66 29/60/66
f 36/61/27 38/62/27 37/53/27
f 38/62/18 40/51/18 39/63/18
f 103/64/27 104/68/27 36/61/27
f 33/65/3 39/221/3 40/66/3
f 39/63/27 46/222/27 45/67/27
f 32/50/58 38/62/58 36/61/58
f 30/57/12 36/61/12 104/68/12
f 33/37/68 43/71/68 46/70/68
f 42/72/15 45/74/15 46/70/15
f 41/73/32 44/76/32 45/74/32
f 108/75/31 112/223/31 44/76/31
f 35/52/38 44/54/38 112/77/38
f 43/71/9 33/37/9 42/72/9
f 29/60/34 41/73/34 42/72/34
f 95/78/34 108/75/34 41/73/34
f 12/20/18 48/80/18 116/79/18
f 11/18/3 47/81/3 48/80/3
f 77/17/9 115/85/9 47/81/9
f 49/83/14 119/224/14 120/84/14
f 48/80/18 50/82/18 120/84/18
f 50/82/3 48/80/3 49/83/3
f 115/85/9 119/224/9 49/83/9
f 52/86/37 54/225/37 53/87/37
f 22/35/27 54/226/27 52/88/27
f 21/32/69 53/227/69 54/89/69
f 18/90/70 52/86/70 51/40/70
f 83/92/71 128/106/71 56/93/71
f 13/95/72 55/102/72 127/96/72
f 55/102/3 13/95/3 56/93/3
f 57/98/73 58/100/73 132/99/73
f 56/93/3 59/103/3 60/101/3
f 55/102/74 57/98/74 131/97/74
f 56/93/75 58/100/75 57/98/75
f 134/104/46 136/105/46 60/101/46
f 58/100/47 60/101/47 136/105/47
f 128/106/48 134/104/48 59/103/48
f 78/13/7 61/108/7 67/107/7
f 68/116/1 67/107/1 62/109/1
f 62/109/8 61/108/8 78/13/8
f 81/19/13 65/111/13 63/110/13
f 65/111/1 66/126/1 64/112/1
f 128/114/3 127/228/3 81/115/3
f 72/117/58 71/118/58 67/107/58
f 75/133/11 71/118/11 87/120/11
f 76/148/10 72/121/10 94/123/10
f 71/118/13 69/134/13 65/124/13
f 69/125/35 70/132/35 66/126/35
f 75/128/1 76/159/1 74/129/1
f 93/131/76 91/161/76 70/132/76
f 75/133/13 73/135/13 69/134/13
f 69/134/9 73/135/9 121/137/9
f 62/139/61 80/219/61 84/42/61
f 115/141/3 116/184/3 79/142/3
f 66/126/18 82/59/18 79/44/18
f 95/144/3 96/158/3 84/145/3
f 88/147/19 87/120/19 85/119/19
f 88/149/20 86/229/20 72/121/20
f 76/159/77 75/128/77 88/151/77
f 86/146/78 85/119/78 71/118/78
f 94/123/79 92/122/79 102/153/79
f 109/155/64 110/169/64 99/156/64
f 103/157/3 104/230/3 96/158/3
f 94/160/1 93/131/1 74/129/1
f 91/161/66 89/164/66 66/126/66
f 90/162/67 92/122/67 72/121/67
f 96/163/25 90/162/25 68/138/25
f 89/164/80 95/182/80 82/59/80
f 99/156/27 100/152/27 98/165/27
f 101/166/18 102/153/18 100/152/18
f 98/165/27 104/170/27 103/167/27
f 102/168/1 101/171/1 93/131/1
f 110/169/18 111/231/18 101/166/18
f 98/165/58 100/152/58 92/122/58
f 104/170/12 98/165/12 90/162/12
f 111/172/81 107/173/81 93/131/81
f 111/172/15 110/175/15 106/174/15
f 110/175/32 109/177/32 105/176/32
f 109/177/14 112/232/14 108/178/14
f 112/179/64 109/155/64 97/154/64
f 91/161/82 93/131/82 106/174/82
f 106/174/34 105/176/34 89/164/34
f 103/157/3 95/144/3 112/181/3
f 105/176/34 108/178/34 95/182/34
f 119/183/3 120/233/3 116/184/3
f 116/185/18 114/186/18 64/112/18
f 114/186/1 113/187/1 63/110/1
f 113/187/9 115/191/9 77/17/9
f 120/189/14 119/234/14 117/190/14
f 120/189/27 118/188/27 114/186/27
f 113/187/1 114/186/1 117/190/1
f 117/190/9 119/234/9 115/191/9
f 123/136/37 124/235/37 122/192/37
f 122/193/18 124/236/18 74/130/18
f 124/194/54 123/237/54 73/127/54
f 121/137/55 122/192/55 70/195/55
f 127/228/3 128/114/3 131/197/3
f 126/199/83 128/215/83 83/200/83
f 127/202/72 125/204/72 65/203/72
f 67/198/1 65/203/1 126/199/1
f 132/206/73 130/208/73 129/207/73
f 135/209/1 133/210/1 126/199/1
f 131/205/74 129/207/74 125/204/74
f 129/207/1 130/208/1 126/199/1
f 135/209/46 136/214/46 134/211/46
f 132/196/3 128/114/3 136/213/3
f 136/214/47 135/209/47 130/208/47
f 133/210/48 134/211/48 128/215/48
