# Blender v2.69 (sub 0) OBJ File: 'models3.blend'
# www.blender.org
o Cube.005_Cube.000
v -0.000000 0.000000 -1.000000
v 1.000000 0.000000 -1.000000
v 1.000000 0.000000 -0.000000
v 0.000000 0.000000 0.000000
v -0.000000 1.000000 -1.000000
v 1.000000 1.000000 -1.000000
v 1.000000 1.000000 -0.000000
v 0.000000 1.000000 0.000000
v -0.000000 0.100000 -0.900000
v -0.000000 0.100000 -0.100000
v -0.000000 0.900000 -0.900000
v -0.000000 0.900000 -0.100000
v 0.900000 0.100000 -0.000000
v 0.100000 0.100000 -0.000000
v 0.900000 0.900000 -0.000000
v 0.100000 0.900000 -0.000000
v 0.100000 1.000000 -0.900000
v 0.900000 1.000000 -0.900000
v 0.900000 1.000000 -0.100000
v 0.100000 1.000000 -0.100000
v 0.100000 0.100000 -1.000000
v 0.900000 0.100000 -1.000000
v 0.100000 0.900000 -1.000000
v 0.900000 0.900000 -1.000000
v 1.000000 0.100000 -0.900000
v 1.000000 0.100000 -0.100000
v 1.000000 0.900000 -0.900000
v 1.000000 0.900000 -0.100000
v 0.100000 0.000000 -0.900000
v 0.900000 0.000000 -0.900000
v 0.900000 0.000000 -0.100000
v 0.100000 0.000000 -0.100000
v 0.031186 0.124949 -0.875051
v 0.031186 0.124949 -0.124949
v 0.031186 0.875051 -0.875051
v 0.031186 0.875051 -0.124949
v 0.875051 0.124949 -0.031186
v 0.124949 0.124949 -0.031186
v 0.875051 0.875051 -0.031186
v 0.124949 0.875051 -0.031186
v 0.124949 0.968814 -0.875051
v 0.875051 0.968814 -0.875051
v 0.875051 0.968814 -0.124949
v 0.124949 0.968814 -0.124949
v 0.124949 0.124949 -0.968814
v 0.875051 0.124949 -0.968814
v 0.124949 0.875051 -0.968814
v 0.875051 0.875051 -0.968814
v 0.968814 0.124949 -0.875051
v 0.968814 0.124949 -0.124949
v 0.968814 0.875051 -0.875051
v 0.968814 0.875051 -0.124949
v 0.124949 0.031186 -0.875051
v 0.875051 0.031186 -0.875051
v 0.875051 0.031186 -0.124949
v 0.124949 0.031186 -0.124949
vt 0.610416 0.950728
vt 0.395629 0.950728
vt 0.588937 0.929249
vt 0.825202 0.521154
vt 0.825202 0.735941
vt 0.803723 0.542633
vt 0.395629 0.306368
vt 0.610416 0.306368
vt 0.417108 0.327846
vt 0.180842 0.735941
vt 0.180842 0.521154
vt 0.202321 0.714462
vt 0.395629 0.091581
vt 0.417107 0.284889
vt 0.395629 0.735941
vt 0.395629 0.521154
vt 0.417108 0.714462
vt 0.374150 0.714462
vt 0.368791 0.709104
vt 0.374150 0.542633
vt 0.202321 0.542633
vt 0.631894 0.714462
vt 0.631894 0.542633
vt 0.637253 0.709103
vt 0.417108 0.499676
vt 0.610416 0.521154
vt 0.588937 0.499676
vt 0.588937 0.327846
vt 0.417107 0.929249
vt 0.417107 0.757420
vt 0.422466 0.923890
vt 0.417108 0.542633
vt 0.610416 0.735941
vt 0.588937 0.542633
vt 0.588937 0.714462
vt 0.368792 0.547992
vt 0.588937 0.757420
vt 0.803723 0.714462
vt 0.798365 0.547992
vt 0.583578 0.762778
vt 0.588937 0.284889
vt 0.610416 0.091581
vt 0.588937 0.113060
vt 0.417107 0.113060
vt 0.207680 0.547992
vt 0.583578 0.494317
vt 0.422467 0.494317
vt 0.583578 0.333205
vt 0.422466 0.547992
vt 0.583578 0.547992
vt 0.422466 0.709104
vt 0.422466 0.762778
vt 0.637253 0.547992
vt 0.798365 0.709103
vt 0.422466 0.118418
vt 0.583578 0.118418
vt 0.422466 0.279531
vt 0.422467 0.333205
vt 0.583578 0.279530
vt 0.583578 0.709104
vt 0.583578 0.923890
vt 0.207679 0.709104
vn 0.000000 0.000000 -1.000000
vn 1.000000 0.000000 0.000000
vn 0.000000 0.000000 1.000000
vn -1.000000 0.000000 0.000000
vn 0.000000 -1.000000 0.000000
vn 0.000000 1.000000 0.000000
vn -0.624692 0.000000 0.780871
vn 0.624694 -0.780869 0.000000
vn 0.780868 0.000000 -0.624696
vn -0.624694 -0.780869 0.000000
vn 0.624696 0.780868 0.000000
vn -0.780868 0.000000 -0.624696
vn 0.000000 0.780869 0.624695
vn -0.000000 -0.624695 -0.780869
vn 0.000000 -0.780872 0.624692
vn 0.000000 -0.624695 0.780869
vn 0.000000 0.624696 -0.780868
vn 0.000000 0.624694 0.780869
vn 0.000000 0.780869 -0.624695
vn -0.624695 0.780869 0.000000
vn 0.000000 -0.780870 -0.624694
vn 0.624695 0.000000 -0.780869
vn -0.624695 0.000000 -0.780869
vn 0.780869 -0.624695 -0.000000
vn 0.624692 0.000000 0.780871
vn 0.780869 0.000000 0.624695
vn -0.780870 -0.624694 0.000000
vn -0.780869 0.000000 0.624694
vn 0.780869 0.624695 0.000000
vn -0.780871 0.624692 0.000000
vn -0.624694 0.000000 0.780870
vn 0.624697 -0.780868 0.000000
vn 0.780869 0.000000 -0.624695
vn 0.000000 1.000000 -0.000001
vn -0.624695 -0.780869 -0.000000
vn 0.624695 0.780869 0.000000
vn -0.780869 0.000000 -0.624695
vn 0.000000 -0.780870 0.624694
vn -0.000000 0.624695 -0.780869
vn 0.000000 0.624695 0.780869
vn 0.624694 0.000000 0.780870
vn -0.780872 -0.624691 0.000000
vn -0.780869 0.000000 0.624695
vn -0.780870 0.624694 0.000000
s off
f 2/1/1 1/2/1 22/3/1
f 3/4/2 2/5/2 26/6/2
f 4/7/3 3/8/3 14/9/3
f 1/10/4 4/11/4 9/12/4
f 4/7/5 1/13/5 32/14/5
f 5/15/6 8/16/6 17/17/6
f 11/18/7 9/12/7 35/19/7
f 8/16/4 5/15/4 12/20/4
f 4/11/4 8/16/4 10/21/4
f 5/15/4 1/10/4 11/18/4
f 27/22/8 28/23/8 51/24/8
f 8/16/3 4/7/3 16/25/3
f 7/26/3 8/16/3 15/27/3
f 3/8/3 7/26/3 13/28/3
f 21/29/9 23/30/9 45/31/9
f 8/16/6 7/26/6 20/32/6
f 7/26/6 6/33/6 19/34/6
f 6/33/6 5/15/6 18/35/6
f 12/20/10 11/18/10 36/36/10
f 6/33/1 2/1/1 24/37/1
f 5/15/1 6/33/1 23/30/1
f 1/2/1 5/15/1 21/29/1
f 26/6/11 25/38/11 50/39/11
f 7/26/2 3/4/2 28/23/2
f 6/33/2 7/26/2 27/22/2
f 2/5/2 6/33/2 25/38/2
f 24/37/12 22/3/12 48/40/12
f 3/8/5 4/7/5 31/41/5
f 2/42/5 3/8/5 30/43/5
f 1/13/5 2/42/5 29/44/5
f 36/36/4 35/19/4 34/45/4
f 39/46/3 40/47/3 37/48/3
f 44/49/6 43/50/6 41/51/6
f 47/52/1 48/40/1 45/31/1
f 51/24/2 52/53/2 49/54/2
f 53/55/5 54/56/5 56/57/5
f 14/9/13 13/28/13 38/58/13
f 31/41/14 32/14/14 55/59/14
f 15/27/15 16/25/15 39/46/15
f 29/44/16 30/43/16 53/55/16
f 20/32/17 19/34/17 44/49/17
f 18/35/18 17/17/18 42/60/18
f 22/3/19 21/29/19 46/61/19
f 9/12/20 10/21/20 33/62/20
f 23/30/21 24/37/21 47/52/21
f 28/23/22 26/6/22 52/53/22
f 10/21/23 12/20/23 34/45/23
f 32/14/24 29/44/24 56/57/24
f 25/38/25 27/22/25 49/54/25
f 16/25/26 14/9/26 40/47/26
f 30/43/27 31/41/27 54/56/27
f 13/28/28 15/27/28 37/48/28
f 17/17/29 20/32/29 41/51/29
f 19/34/30 18/35/30 43/50/30
f 1/2/1 21/29/1 22/3/1
f 2/5/2 25/38/2 26/6/2
f 3/8/3 13/28/3 14/9/3
f 4/11/4 10/21/4 9/12/4
f 1/13/5 29/44/5 32/14/5
f 8/16/6 20/32/6 17/17/6
f 9/12/31 33/62/31 35/19/31
f 5/15/4 11/18/4 12/20/4
f 8/16/4 12/20/4 10/21/4
f 1/10/4 9/12/4 11/18/4
f 28/23/32 52/53/32 51/24/32
f 4/7/3 14/9/3 16/25/3
f 8/16/3 16/25/3 15/27/3
f 7/26/3 15/27/3 13/28/3
f 23/30/33 47/52/33 45/31/33
f 7/26/6 19/34/6 20/32/6
f 6/33/6 18/35/6 19/34/6
f 5/15/34 17/17/34 18/35/34
f 11/18/35 35/19/35 36/36/35
f 2/1/1 22/3/1 24/37/1
f 6/33/1 24/37/1 23/30/1
f 5/15/1 23/30/1 21/29/1
f 25/38/36 49/54/36 50/39/36
f 3/4/2 26/6/2 28/23/2
f 7/26/2 28/23/2 27/22/2
f 6/33/2 27/22/2 25/38/2
f 22/3/37 46/61/37 48/40/37
f 4/7/5 32/14/5 31/41/5
f 3/8/5 31/41/5 30/43/5
f 2/42/5 30/43/5 29/44/5
f 35/19/4 33/62/4 34/45/4
f 40/47/3 38/58/3 37/48/3
f 43/50/6 42/60/6 41/51/6
f 48/40/1 46/61/1 45/31/1
f 52/53/2 50/39/2 49/54/2
f 54/56/5 55/59/5 56/57/5
f 13/28/13 37/48/13 38/58/13
f 32/14/14 56/57/14 55/59/14
f 16/25/38 40/47/38 39/46/38
f 30/43/16 54/56/16 53/55/16
f 19/34/39 43/50/39 44/49/39
f 17/17/40 41/51/40 42/60/40
f 21/29/19 45/31/19 46/61/19
f 10/21/20 34/45/20 33/62/20
f 24/37/21 48/40/21 47/52/21
f 26/6/22 50/39/22 52/53/22
f 12/20/23 36/36/23 34/45/23
f 29/44/24 53/55/24 56/57/24
f 27/22/41 51/24/41 49/54/41
f 14/9/26 38/58/26 40/47/26
f 31/41/42 55/59/42 54/56/42
f 15/27/43 39/46/43 37/48/43
f 20/32/29 44/49/29 41/51/29
f 18/35/44 42/60/44 43/50/44
