# Blender v2.69 (sub 0) OBJ File: 'models3.blend'
# www.blender.org
o Cube.004_Cube.011
v 0.000000 0.000000 -1.000000
v -0.000000 0.000000 0.000000
v -0.000000 0.100000 -0.900000
v 1.000000 0.000000 -1.000000
v 0.900000 0.100000 -1.000000
v 1.000000 -0.000000 0.000000
v 1.000000 0.100000 -0.100000
v 0.100000 0.100000 0.000000
v 0.900000 0.000000 -0.100000
v 0.000000 1.000000 0.000000
v 1.000000 1.000000 0.000000
v 0.100000 1.000000 -0.100000
v 0.100000 0.900000 0.000000
v 0.124949 0.875051 -0.031186
v 0.900000 0.900000 0.000000
v 0.900000 0.100000 0.000000
v 0.100000 0.900000 -1.000000
v 0.900000 0.900000 -1.000000
v 0.124949 0.875051 -0.968814
v 1.000000 0.900000 -0.100000
v 1.000000 1.000000 -1.000000
v 1.000000 0.900000 -0.900000
v 1.000000 0.100000 -0.900000
v -0.000000 0.100000 -0.100000
v 0.000000 0.900000 -0.100000
v 0.031186 0.124949 -0.124949
v 0.900000 1.000000 -0.100000
v 0.000000 1.000000 -1.000000
v 0.900000 1.000000 -0.900000
v 0.100000 1.000000 -0.900000
v 0.875051 0.875051 -0.031186
v 0.000000 0.900000 -0.900000
v 0.100000 0.100000 -1.000000
v 0.875051 0.124949 -0.968814
v 0.031186 0.875051 -0.875051
v 0.900000 0.000000 -0.900000
v 0.100000 0.000000 -0.900000
v 0.100000 0.000000 -0.100000
v 0.875051 0.124949 -0.031186
v 0.968814 0.875051 -0.875051
v 0.968814 0.875051 -0.124949
v 0.968814 0.124949 -0.875051
v 0.124949 0.968814 -0.124949
v 0.875051 0.968814 -0.124949
v 0.183636 0.573789 -0.183636
v 0.031186 0.875051 -0.124949
v 0.875051 0.875051 -0.968814
v 0.124949 0.124949 -0.968814
v 0.124949 0.031186 -0.124949
v 0.124949 0.031186 -0.875051
v 0.875051 0.031186 -0.124949
v 0.968814 0.124949 -0.124949
v 0.875051 0.031186 -0.875051
v 0.124949 0.968814 -0.875051
v 0.031186 0.124949 -0.875051
v 0.124949 0.124949 -0.031186
v 0.875051 0.968814 -0.875051
v 0.816364 0.573789 -0.183636
v 0.816364 0.573789 -0.816364
v 0.183636 0.573789 -0.816364
v 0.933639 1.000033 -0.581699
v 0.954376 1.000033 -0.581699
v 0.933639 0.950333 -0.561157
v 0.954376 0.950333 -0.561157
v 0.933639 0.929716 -0.511488
v 0.954376 0.929716 -0.511488
v 0.933639 0.950258 -0.461788
v 0.954376 0.950258 -0.461788
v 0.933639 0.999927 -0.441170
v 0.954376 0.999927 -0.441170
v 0.933639 1.049627 -0.461713
v 0.954376 1.049627 -0.461713
v 0.933639 1.070244 -0.511382
v 0.954376 1.049702 -0.561082
v 0.966236 1.000025 -0.570807
v 0.933639 1.049702 -0.561082
v 0.954376 1.070244 -0.511382
v 0.966236 1.041994 -0.553386
v 0.966236 1.059353 -0.511390
v 0.966236 1.041931 -0.469420
v 0.966236 0.999935 -0.452062
v 0.966236 0.957965 -0.469484
v 0.966236 0.958029 -0.553449
v 0.486771 1.000025 -0.570807
v 0.923682 1.000025 -0.570807
v 0.486771 0.958029 -0.553449
v 0.923682 0.958029 -0.553449
v 0.486771 0.940607 -0.511479
v 0.923682 0.940607 -0.511479
v 0.486771 0.957965 -0.469484
v 0.923682 0.957965 -0.469484
v 0.486771 0.999935 -0.452062
v 0.923682 0.999935 -0.452062
v 0.486771 1.041931 -0.469420
v 0.923682 1.041931 -0.469420
v 0.486771 1.059353 -0.511390
v 0.486771 1.041994 -0.553386
v 0.923682 1.041994 -0.553386
v 0.923682 1.059353 -0.511390
v 0.966236 0.940607 -0.511479
v 0.966236 0.999980 -0.511435
v 0.063694 1.000033 -0.581699
v 0.063694 0.950333 -0.561157
v 0.042957 1.000033 -0.581699
v 0.063694 0.929715 -0.511488
v 0.042957 0.950333 -0.561157
v 0.063694 0.950258 -0.461788
v 0.042957 0.929715 -0.511488
v 0.063694 0.999927 -0.441170
v 0.042957 0.950258 -0.461788
v 0.063694 1.049627 -0.461713
v 0.042957 0.999927 -0.441170
v 0.063694 1.070244 -0.511382
v 0.042957 1.049627 -0.461713
v 0.031097 1.000025 -0.570807
v 0.042957 1.049702 -0.561082
v 0.063694 1.049702 -0.561082
v 0.042957 1.070244 -0.511382
v 0.031097 1.041994 -0.553386
v 0.031097 1.059352 -0.511390
v 0.031097 1.041931 -0.469420
v 0.031097 0.999935 -0.452062
v 0.031097 0.957965 -0.469484
v 0.031097 0.940607 -0.511479
v 0.031097 0.958029 -0.553449
v 0.510562 1.000025 -0.570807
v 0.510562 0.958029 -0.553449
v 0.073651 1.000025 -0.570807
v 0.510562 0.940607 -0.511479
v 0.073651 0.958029 -0.553449
v 0.510562 0.957965 -0.469484
v 0.073651 0.940607 -0.511479
v 0.510562 0.999935 -0.452062
v 0.073651 0.957965 -0.469484
v 0.510562 1.041931 -0.469420
v 0.073651 0.999935 -0.452062
v 0.510562 1.059353 -0.511390
v 0.073651 1.041931 -0.469420
v 0.510562 1.041994 -0.553386
v 0.073651 1.041994 -0.553386
v 0.073651 1.059352 -0.511390
v 0.031097 0.999980 -0.511435
vt 0.748200 0.926003
vt 0.540436 0.926003
vt 0.727424 0.905226
vt 0.955965 0.510473
vt 0.955965 0.718238
vt 0.935188 0.531249
vt 0.540436 0.302709
vt 0.748200 0.302709
vt 0.561213 0.323486
vt 0.332671 0.718238
vt 0.332671 0.510473
vt 0.353448 0.697461
vt 0.540435 0.302709
vt 0.540436 0.094944
vt 0.561212 0.281933
vt 0.540436 0.718238
vt 0.540436 0.510473
vt 0.561212 0.697461
vt 0.519659 0.697461
vt 0.514476 0.692278
vt 0.519659 0.531249
vt 0.353448 0.531249
vt 0.768977 0.697461
vt 0.768977 0.531249
vt 0.774161 0.692277
vt 0.561213 0.489697
vt 0.748200 0.510473
vt 0.727424 0.489697
vt 0.727424 0.323486
vt 0.561212 0.905226
vt 0.561212 0.739014
vt 0.566396 0.900043
vt 0.561212 0.531249
vt 0.748200 0.718238
vt 0.727424 0.531249
vt 0.727424 0.697461
vt 0.514476 0.536433
vt 0.727424 0.739014
vt 0.935188 0.697461
vt 0.930004 0.536433
vt 0.722240 0.744198
vt 0.727424 0.281932
vt 0.748201 0.094944
vt 0.727424 0.115721
vt 0.561212 0.115721
vt 0.358631 0.536433
vt 0.722240 0.484513
vt 0.566396 0.484513
vt 0.722240 0.328668
vt 0.566396 0.692278
vt 0.566396 0.536433
vt 0.594338 0.664334
vt 0.566396 0.744198
vt 0.774161 0.536433
vt 0.930004 0.692277
vt 0.566396 0.120904
vt 0.722240 0.120903
vt 0.566396 0.276749
vt 0.566396 0.328668
vt 0.722240 0.276748
vt 0.722240 0.692278
vt 0.722240 0.900043
vt 0.358631 0.692278
vt 0.722240 0.536433
vt 0.594338 0.564376
vt 0.694298 0.564376
vt 0.694298 0.664334
vt 0.047236 0.380638
vt 0.047778 0.379368
vt 0.069778 0.380673
vt 0.069263 0.379392
vt 0.085742 0.364759
vt 0.084472 0.364217
vt 0.085777 0.342217
vt 0.084495 0.342732
vt 0.069863 0.326253
vt 0.069321 0.327523
vt 0.047321 0.326218
vt 0.047836 0.327500
vt 0.031357 0.342132
vt 0.032603 0.364159
vt 0.049570 0.375098
vt 0.031322 0.364674
vt 0.032627 0.342674
vt 0.036889 0.362407
vt 0.036897 0.344465
vt 0.049588 0.331785
vt 0.067529 0.331793
vt 0.080210 0.344484
vt 0.067511 0.375106
vt 0.283609 0.372878
vt 0.458876 0.372878
vt 0.283609 0.408904
vt 0.458876 0.408904
vt 0.283609 0.444929
vt 0.283607 0.156723
vt 0.458875 0.156723
vt 0.283607 0.192749
vt 0.458876 0.192749
vt 0.283608 0.228775
vt 0.458876 0.228775
vt 0.283608 0.264801
vt 0.458876 0.264801
vt 0.283609 0.300826
vt 0.283609 0.336853
vt 0.458876 0.336853
vt 0.458877 0.300826
vt 0.044928 0.386330
vt 0.072171 0.386330
vt 0.091434 0.367067
vt 0.091434 0.339824
vt 0.072171 0.320561
vt 0.044928 0.320561
vt 0.025665 0.339824
vt 0.025665 0.367067
vt 0.080202 0.362425
vt 0.058549 0.353446
vt 0.069778 0.326218
vt 0.085742 0.342132
vt 0.069263 0.327500
vt 0.085777 0.364674
vt 0.084472 0.342675
vt 0.069863 0.380638
vt 0.084495 0.364159
vt 0.047321 0.380673
vt 0.069321 0.379368
vt 0.031357 0.364759
vt 0.047836 0.379392
vt 0.031322 0.342217
vt 0.032627 0.364217
vt 0.067511 0.331785
vt 0.047778 0.327523
vt 0.047236 0.326253
vt 0.032603 0.342732
vt 0.049570 0.331793
vt 0.036889 0.344484
vt 0.036897 0.362425
vt 0.049588 0.375106
vt 0.067529 0.375098
vt 0.080210 0.362407
vt 0.080202 0.344465
vt 0.107975 0.228775
vt 0.107975 0.192748
vt 0.283241 0.228774
vt 0.107975 0.156723
vt 0.283241 0.192748
vt 0.107978 0.444929
vt 0.107977 0.408904
vt 0.283247 0.444929
vt 0.107977 0.372877
vt 0.283246 0.408904
vt 0.107975 0.336852
vt 0.283245 0.372877
vt 0.107975 0.300825
vt 0.283244 0.336851
vt 0.107975 0.264800
vt 0.283242 0.264800
vt 0.283243 0.300825
vt 0.458876 0.444929
vt 0.283241 0.156723
vn -1.000000 -0.000000 -0.000000
vn 0.000000 0.000000 -1.000000
vn 1.000000 0.000001 0.000000
vn -0.000000 -0.000000 1.000000
vn -0.000000 -1.000000 0.000000
vn 0.000000 1.000000 0.000000
vn 0.780867 -0.000000 0.624698
vn 0.000000 -0.780866 -0.624699
vn 1.000000 -0.000000 0.000000
vn -0.624698 0.000000 -0.780866
vn -0.000000 -0.780870 0.624694
vn 0.000000 0.780866 -0.624698
vn 0.000000 0.000001 -1.000000
vn -0.624696 0.000000 0.780868
vn 0.000000 0.146952 -0.989144
vn 0.624698 0.780867 0.000000
vn -0.780864 -0.624701 -0.000000
vn 0.624699 -0.780866 0.000000
vn 0.780867 -0.624698 0.000000
vn -0.780866 0.624699 0.000000
vn 0.780867 0.624698 0.000000
vn -0.624698 0.780867 0.000000
vn 0.000000 0.780866 0.624699
vn -0.624698 -0.780867 0.000000
vn -0.780865 0.000000 -0.624700
vn -0.780866 0.000000 0.624698
vn -0.000000 -0.624698 -0.780866
vn 0.780867 -0.000000 -0.624697
vn 0.624699 -0.000000 -0.780866
vn -0.000000 -0.624698 0.780867
vn 0.624696 -0.000000 0.780868
vn 0.000000 0.624699 -0.780866
vn 0.000000 0.624699 0.780866
vn -0.989144 0.146953 -0.000000
vn 0.000000 0.146953 0.989144
vn 0.989144 0.146952 0.000000
vn 0.000000 -0.381982 -0.924170
vn 0.000000 -0.923595 -0.383370
vn 0.000000 -0.924172 0.381978
vn 0.000000 -0.383389 0.923587
vn 0.000000 0.381996 0.924164
vn 0.000000 0.923594 0.383373
vn 0.646970 0.292325 -0.704255
vn 0.000000 0.383374 -0.923593
vn 0.000000 0.924173 -0.381975
vn 0.646984 0.704685 -0.291259
vn 0.646935 0.704281 0.292341
vn 0.646952 0.291284 0.704704
vn 0.646969 -0.292340 0.704250
vn 0.646948 -0.704712 0.291272
vn 0.646979 -0.704247 -0.292327
vn 0.646985 -0.291262 -0.704682
vn 0.000000 -0.381983 -0.924170
vn 0.000000 -0.923587 -0.383390
vn 0.000000 -0.924166 0.381991
vn 0.000000 -0.383387 0.923588
vn 0.000000 0.381980 0.924170
vn 0.000000 0.923588 0.383387
vn 0.000000 0.383377 -0.923592
vn 0.000000 0.924162 -0.382001
vn -0.710845 -0.268665 -0.650014
vn -0.710847 -0.649605 -0.269648
vn -0.710789 -0.650064 0.268693
vn -0.710833 -0.269658 0.649616
vn -0.710837 0.268670 0.650021
vn -0.710826 0.649622 0.269661
vn -0.710844 0.269643 -0.649610
vn -0.710797 0.650054 -0.268694
vn 1.000000 -0.000002 0.000000
vn 0.000000 -0.381978 -0.924171
vn 0.000000 -0.923587 -0.383388
vn 0.000000 -0.924164 0.381996
vn 0.000000 0.381994 0.924165
vn 0.000000 0.923594 0.383371
vn -0.646970 0.292326 -0.704255
vn 0.000000 0.383372 -0.923594
vn 0.000000 0.924171 -0.381978
vn -0.646990 0.704678 -0.291260
vn -0.646968 0.704257 0.292326
vn -0.646947 0.291272 0.704713
vn -0.646969 -0.292340 0.704250
vn -0.646951 -0.704705 0.291281
vn -0.646984 -0.704237 -0.292338
vn -0.646985 -0.291259 -0.704683
vn -0.000002 0.924162 -0.382001
vn 0.710839 -0.268669 -0.650019
vn 0.710844 -0.649605 -0.269657
vn 0.710818 -0.650037 0.268682
vn 0.710832 -0.269659 0.649616
vn 0.710814 0.268677 0.650043
vn 0.710833 0.649621 0.269646
vn 0.710843 0.269648 -0.649609
vn 0.710853 0.650006 -0.268663
vn 0.000000 -0.000001 -1.000000
vn 0.000000 -0.780868 -0.624696
vn 1.000000 -0.000001 0.000000
vn -0.624699 0.000000 -0.780866
vn -0.000000 -0.780866 0.624699
vn -1.000000 0.000000 -0.000001
vn -0.624698 0.000000 0.780867
vn 0.624698 0.780866 0.000000
vn -0.780870 -0.624694 -0.000000
vn 0.624697 -0.780867 0.000000
vn -0.624698 0.780866 -0.000000
vn -0.780866 0.000000 -0.624698
vn 0.000000 -0.624699 -0.780865
vn 0.780867 -0.000000 -0.624698
vn 0.624698 0.000000 -0.780866
vn -0.000000 0.624697 0.780867
vn -0.989144 0.146952 -0.000000
vn 0.000000 0.146952 0.989144
vn 0.989143 0.146952 0.000000
vn 0.000000 -0.381975 -0.924173
vn 0.000000 -0.923593 -0.383375
vn 0.000000 -0.924171 0.381980
vn 0.000000 -0.383388 0.923587
vn 0.000000 0.381993 0.924165
vn 0.000000 0.923594 0.383372
vn 0.646980 0.292326 -0.704246
vn 0.000000 0.383371 -0.923594
vn 0.646940 0.704711 -0.291293
vn 0.646960 0.704258 0.292341
vn 0.646973 0.291267 0.704692
vn 0.646968 -0.292337 0.704252
vn 0.646928 -0.704723 0.291288
vn 0.646948 -0.704268 -0.292345
vn 0.646975 -0.291263 -0.704691
vn 0.000000 -0.923589 -0.383385
vn 0.000000 -0.924167 0.381988
vn 0.000000 -0.383386 0.923588
vn 0.000000 0.381981 0.924170
vn 0.000000 0.923589 0.383385
vn 0.000000 0.383376 -0.923592
vn -0.710843 -0.268665 -0.650016
vn -0.710809 -0.649639 -0.269666
vn -0.710819 -0.650039 0.268676
vn -0.710833 -0.269662 0.649614
vn -0.710817 0.268684 0.650037
vn -0.710801 0.649649 0.269662
vn -0.710832 0.269656 -0.649618
vn -0.710854 0.650004 -0.268664
vn 1.000000 0.000002 0.000000
vn 1.000000 0.000005 0.000000
vn 1.000000 -0.000005 0.000000
vn 0.000000 -0.381979 -0.924171
vn 0.000000 -0.923586 -0.383391
vn 0.000000 -0.924164 0.381995
vn 0.000000 0.923593 0.383374
vn -0.646978 0.292328 -0.704246
vn 0.000000 0.383373 -0.923594
vn 0.000000 0.924172 -0.381975
vn -0.646974 0.704692 -0.291263
vn -0.646960 0.704263 0.292330
vn -0.646974 0.291276 0.704687
vn -0.646967 -0.292340 0.704253
vn -0.646962 -0.704696 0.291279
vn -0.646981 -0.704242 -0.292333
vn -0.646975 -0.291267 -0.704689
vn -0.000002 0.923596 0.383367
vn 0.000000 0.924169 -0.381983
vn 0.710850 -0.268663 -0.650010
vn 0.710849 -0.649600 -0.269654
vn 0.710827 -0.650027 0.268682
vn 0.710834 -0.269660 0.649614
vn 0.710838 0.268678 0.650017
vn 0.710825 0.649627 0.269653
vn 0.710835 0.269647 -0.649618
vn 0.710838 0.650021 -0.268667
s off
f 1/1/1 2/2/1 3/3/1
f 4/4/2 1/5/2 5/6/2
f 6/7/3 4/8/3 7/9/3
f 2/10/4 6/11/4 8/12/4
f 6/13/5 2/14/5 9/15/5
f 10/16/6 11/17/6 12/18/6
f 13/19/7 8/12/7 14/20/7
f 11/17/4 10/16/4 15/21/4
f 6/11/4 11/17/4 16/22/4
f 10/16/4 2/10/4 13/19/4
f 17/23/8 18/24/8 19/25/8
f 11/17/9 6/7/9 20/26/9
f 21/27/9 11/17/9 22/28/9
f 4/8/9 21/27/9 23/29/9
f 24/30/10 25/31/10 26/32/10
f 11/17/6 21/27/6 27/33/6
f 21/27/6 28/34/6 29/35/6
f 28/34/6 10/16/6 30/36/6
f 15/21/11 13/19/11 31/37/11
f 28/34/1 1/1/1 32/38/1
f 10/16/1 28/34/1 25/31/1
f 2/2/1 10/16/1 24/30/1
f 5/6/12 33/39/12 34/40/12
f 21/27/2 4/4/2 18/24/2
f 28/34/13 21/27/13 17/23/13
f 1/5/2 28/34/2 33/39/2
f 32/38/14 3/3/14 35/41/14
f 4/8/5 6/13/5 36/42/5
f 1/43/5 4/8/5 37/44/5
f 2/14/5 1/43/5 38/45/5
f 31/37/4 14/20/4 39/46/4
f 40/47/9 41/48/9 42/49/9
f 43/50/15 44/51/15 45/52/15
f 46/53/1 35/41/1 26/32/1
f 19/25/2 47/54/2 48/55/2
f 49/56/5 50/57/5 51/58/5
f 7/9/16 23/29/16 52/59/16
f 36/42/17 9/15/17 53/60/17
f 22/28/18 20/26/18 40/47/18
f 38/45/19 37/44/19 49/56/19
f 27/33/20 29/35/20 44/51/20
f 30/36/21 12/18/21 54/61/21
f 3/3/22 24/30/22 55/62/22
f 8/12/23 16/22/23 56/63/23
f 25/31/24 32/38/24 46/53/24
f 18/24/25 5/6/25 47/54/25
f 16/22/26 15/21/26 39/46/26
f 9/15/27 38/45/27 51/58/27
f 33/39/28 17/23/28 48/55/28
f 20/26/29 7/9/29 41/48/29
f 37/44/30 36/42/30 50/57/30
f 23/29/31 22/28/31 42/49/31
f 12/18/32 27/33/32 43/50/32
f 29/35/33 30/36/33 57/64/33
f 58/65/6 59/66/6 45/52/6
f 44/51/34 57/64/34 58/65/34
f 57/64/35 54/61/35 59/66/35
f 54/61/36 43/50/36 60/67/36
f 61/68/37 62/69/37 63/70/37
f 63/70/38 64/71/38 65/72/38
f 65/72/39 66/73/39 67/74/39
f 67/74/40 68/75/40 69/76/40
f 69/76/41 70/77/41 71/78/41
f 71/78/42 72/79/42 73/80/42
f 62/69/43 74/81/43 75/82/43
f 76/83/44 74/81/44 61/68/44
f 73/80/45 77/84/45 76/83/45
f 74/81/46 77/84/46 78/85/46
f 77/84/47 72/79/47 79/86/47
f 72/79/48 70/77/48 80/87/48
f 70/77/49 68/75/49 81/88/49
f 68/75/50 66/73/50 82/89/50
f 66/73/51 64/71/51 83/90/51
f 64/71/52 62/69/52 83/90/52
f 84/91/53 85/92/53 86/93/53
f 86/93/54 87/94/54 88/95/54
f 88/96/55 89/97/55 90/98/55
f 90/98/56 91/99/56 92/100/56
f 92/100/57 93/101/57 94/102/57
f 94/102/58 95/103/58 96/104/58
f 97/105/59 98/106/59 84/91/59
f 96/104/60 99/107/60 97/105/60
f 85/108/61 61/68/61 63/70/61
f 87/109/62 63/70/62 65/72/62
f 89/110/63 65/72/63 91/111/63
f 91/111/64 67/74/64 93/112/64
f 93/112/65 69/76/65 95/113/65
f 95/113/66 71/78/66 99/114/66
f 98/115/67 76/83/67 61/68/67
f 99/114/68 73/80/68 98/115/68
f 83/90/9 75/82/9 100/116/9
f 79/86/69 101/117/69 75/82/69
f 80/87/9 81/88/9 79/86/9
f 100/116/9 101/117/9 81/88/9
f 102/118/70 103/119/70 104/120/70
f 103/119/71 105/121/71 106/122/71
f 105/121/72 107/123/72 108/124/72
f 107/123/40 109/125/40 110/126/40
f 109/125/73 111/127/73 112/128/73
f 111/127/74 113/129/74 114/130/74
f 104/120/75 115/131/75 116/132/75
f 117/133/76 102/118/76 116/132/76
f 113/129/77 117/133/77 118/134/77
f 116/132/78 119/135/78 120/136/78
f 118/134/79 120/136/79 121/137/79
f 114/130/80 121/137/80 122/138/80
f 112/128/81 122/138/81 110/126/81
f 110/126/82 123/139/82 124/140/82
f 108/124/83 124/140/83 106/122/83
f 106/122/84 125/141/84 104/120/84
f 126/142/53 127/143/53 128/144/53
f 127/143/54 129/145/54 130/146/54
f 129/147/55 131/148/55 132/149/55
f 131/148/56 133/150/56 134/151/56
f 133/150/57 135/152/57 136/153/57
f 135/152/58 137/154/58 138/155/58
f 139/156/59 126/142/59 140/157/59
f 137/154/85 139/156/85 141/158/85
f 128/112/86 130/111/86 102/118/86
f 130/111/87 132/110/87 103/119/87
f 132/110/88 134/109/88 107/123/88
f 134/109/89 136/108/89 107/123/89
f 136/108/90 138/115/90 111/127/90
f 138/115/91 141/114/91 113/129/91
f 140/113/92 128/112/92 117/133/92
f 141/114/93 140/113/93 117/133/93
f 125/141/1 124/140/1 115/131/1
f 120/136/1 119/135/1 115/131/1
f 121/137/1 120/136/1 122/138/1
f 124/140/1 123/139/1 122/138/1
f 2/2/1 24/30/1 3/3/1
f 1/5/94 33/39/94 5/6/94
f 4/8/9 23/29/9 7/9/9
f 6/11/4 16/22/4 8/12/4
f 2/14/5 38/45/5 9/15/5
f 11/17/6 27/33/6 12/18/6
f 8/12/7 56/63/7 14/20/7
f 10/16/4 13/19/4 15/21/4
f 11/17/4 15/21/4 16/22/4
f 2/10/4 8/12/4 13/19/4
f 18/24/95 47/54/95 19/25/95
f 6/7/9 7/9/9 20/26/9
f 11/17/96 20/26/96 22/28/96
f 21/27/9 22/28/9 23/29/9
f 25/31/97 46/53/97 26/32/97
f 21/27/6 29/35/6 27/33/6
f 28/34/6 30/36/6 29/35/6
f 10/16/6 12/18/6 30/36/6
f 13/19/98 14/20/98 31/37/98
f 1/1/99 3/3/99 32/38/99
f 28/34/1 32/38/1 25/31/1
f 10/16/1 25/31/1 24/30/1
f 33/39/12 48/55/12 34/40/12
f 4/4/2 5/6/2 18/24/2
f 21/27/2 18/24/2 17/23/2
f 28/34/2 17/23/2 33/39/2
f 3/3/100 55/62/100 35/41/100
f 6/13/5 9/15/5 36/42/5
f 4/8/5 36/42/5 37/44/5
f 1/43/5 37/44/5 38/45/5
f 14/20/4 56/63/4 39/46/4
f 41/48/9 52/59/9 42/49/9
f 44/51/15 58/65/15 45/52/15
f 35/41/1 55/62/1 26/32/1
f 47/54/2 34/40/2 48/55/2
f 50/57/5 53/60/5 51/58/5
f 23/29/101 42/49/101 52/59/101
f 9/15/102 51/58/102 53/60/102
f 20/26/103 41/48/103 40/47/103
f 37/44/19 50/57/19 49/56/19
f 29/35/20 57/64/20 44/51/20
f 12/18/21 43/50/21 54/61/21
f 24/30/104 26/32/104 55/62/104
f 16/22/23 39/46/23 56/63/23
f 32/38/24 35/41/24 46/53/24
f 5/6/105 34/40/105 47/54/105
f 15/21/26 31/37/26 39/46/26
f 38/45/106 49/56/106 51/58/106
f 17/23/107 19/25/107 48/55/107
f 7/9/108 52/59/108 41/48/108
f 36/42/30 53/60/30 50/57/30
f 22/28/31 40/47/31 42/49/31
f 27/33/32 44/51/32 43/50/32
f 30/36/109 54/61/109 57/64/109
f 59/66/6 60/67/6 45/52/6
f 57/64/110 59/66/110 58/65/110
f 54/61/111 60/67/111 59/66/111
f 43/50/112 45/52/112 60/67/112
f 62/69/113 64/71/113 63/70/113
f 64/71/114 66/73/114 65/72/114
f 66/73/115 68/75/115 67/74/115
f 68/75/116 70/77/116 69/76/116
f 70/77/117 72/79/117 71/78/117
f 72/79/118 77/84/118 73/80/118
f 74/81/119 78/85/119 75/82/119
f 74/81/120 62/69/120 61/68/120
f 77/84/45 74/81/45 76/83/45
f 77/84/121 79/86/121 78/85/121
f 72/79/122 80/87/122 79/86/122
f 70/77/123 81/88/123 80/87/123
f 68/75/124 82/89/124 81/88/124
f 66/73/125 100/116/125 82/89/125
f 100/116/126 66/73/126 83/90/126
f 62/69/127 75/82/127 83/90/127
f 85/92/37 87/94/37 86/93/37
f 87/94/128 89/159/128 88/95/128
f 89/97/129 91/99/129 90/98/129
f 91/99/130 93/101/130 92/100/130
f 93/101/131 95/103/131 94/102/131
f 95/103/132 99/107/132 96/104/132
f 98/106/133 85/92/133 84/91/133
f 99/107/60 98/106/60 97/105/60
f 87/109/134 85/108/134 63/70/134
f 89/110/135 87/109/135 65/72/135
f 65/72/136 67/74/136 91/111/136
f 67/74/137 69/76/137 93/112/137
f 69/76/138 71/78/138 95/113/138
f 71/78/139 73/80/139 99/114/139
f 85/108/140 98/115/140 61/68/140
f 73/80/141 76/83/141 98/115/141
f 75/82/142 101/117/142 100/116/142
f 78/85/143 79/86/143 75/82/143
f 81/88/9 101/117/9 79/86/9
f 82/89/144 100/116/144 81/88/144
f 103/119/145 106/122/145 104/120/145
f 105/121/146 108/124/146 106/122/146
f 107/123/147 110/126/147 108/124/147
f 109/125/116 112/128/116 110/126/116
f 111/127/117 114/130/117 112/128/117
f 113/129/148 118/134/148 114/130/148
f 115/131/149 119/135/149 116/132/149
f 102/118/150 104/120/150 116/132/150
f 117/133/151 116/132/151 118/134/151
f 118/134/152 116/132/152 120/136/152
f 114/130/153 118/134/153 121/137/153
f 112/128/154 114/130/154 122/138/154
f 122/138/155 123/139/155 110/126/155
f 108/124/156 110/126/156 124/140/156
f 124/140/157 125/141/157 106/122/157
f 125/141/158 115/131/158 104/120/158
f 127/143/37 130/146/37 128/144/37
f 129/145/128 132/160/128 130/146/128
f 131/148/129 134/151/129 132/149/129
f 133/150/130 136/153/130 134/151/130
f 135/152/131 138/155/131 136/153/131
f 137/154/159 141/158/159 138/155/159
f 126/142/133 128/144/133 140/157/133
f 139/156/160 140/157/160 141/158/160
f 130/111/161 103/119/161 102/118/161
f 132/110/162 105/121/162 103/119/162
f 105/121/163 132/110/163 107/123/163
f 136/108/164 109/125/164 107/123/164
f 109/125/165 136/108/165 111/127/165
f 111/127/166 138/115/166 113/129/166
f 128/112/167 102/118/167 117/133/167
f 113/129/168 141/114/168 117/133/168
f 124/140/1 142/117/1 115/131/1
f 142/117/1 120/136/1 115/131/1
f 120/136/1 142/117/1 122/138/1
f 142/117/1 124/140/1 122/138/1
