# Blender v2.69 (sub 0) OBJ File: 'models1.blend'
# www.blender.org
o Cube.008_Cube.016
v 0.105221 0.912561 -0.894779
v 0.894779 0.912561 -0.894779
v 0.894779 0.912561 -0.105221
v 0.105221 0.912561 -0.105221
v 0.209169 0.912168 -0.790830
v 0.790830 0.912168 -0.790830
v 0.790830 0.912168 -0.209170
v 0.209170 0.912168 -0.209170
v 0.500000 0.919184 -0.500000
v 0.500000 0.919184 -0.160381
v 0.500000 0.919184 -0.839619
v 0.500000 0.911401 -0.137789
v 0.500000 0.911401 -0.862211
v 0.500000 0.911401 -0.047237
v 0.500000 0.911401 -0.952763
v 0.160381 0.919184 -0.500000
v 0.839619 0.919184 -0.500000
v 0.137789 0.911401 -0.500000
v 0.862211 0.911401 -0.500000
v 0.047237 0.911401 -0.500000
v 0.952763 0.911401 -0.500000
v 0.227309 0.918417 -0.772691
v 0.772691 0.918417 -0.772691
v 0.772691 0.918417 -0.227309
v 0.227309 0.918417 -0.227309
v 0.105221 0.998840 -0.894779
v 0.894779 0.998840 -0.894779
v 0.894779 0.998840 -0.105221
v 0.105221 0.998840 -0.105221
v 0.500000 0.955700 -0.990627
v 0.209169 0.999233 -0.790830
v 0.790830 0.999233 -0.790830
v 0.790830 0.999233 -0.209170
v 0.209170 0.999233 -0.209170
v 0.500000 0.955700 -0.009373
v 0.500000 0.992216 -0.500000
v 0.500000 0.992216 -0.160381
v 0.500000 0.992216 -0.839619
v 0.500000 1.000000 -0.137789
v 0.500000 1.000000 -0.862211
v 0.500000 1.000000 -0.047237
v 0.500000 1.000000 -0.952763
v 0.990627 0.955700 -0.500000
v 0.009372 0.955700 -0.500000
v 0.160381 0.992216 -0.500000
v 0.839619 0.992216 -0.500000
v 0.137789 1.000000 -0.500000
v 0.862211 1.000000 -0.500000
v 0.047237 1.000000 -0.500000
v 0.952763 1.000000 -0.500000
v 0.072206 0.955700 -0.072206
v 0.927794 0.955700 -0.072206
v 0.927794 0.955700 -0.927794
v 0.072206 0.955700 -0.927794
v 0.227309 0.992983 -0.772691
v 0.772691 0.992983 -0.772691
v 0.772691 0.992983 -0.227309
v 0.227309 0.992983 -0.227309
v 0.592768 0.000000 -0.500000
v 0.407232 0.000000 -0.500000
v 0.500000 0.000000 -0.592768
v 0.500000 0.000000 -0.407232
v 0.434334 0.000000 -0.434334
v 0.565666 0.000000 -0.434334
v 0.565666 0.000000 -0.565666
v 0.434334 0.000000 -0.565666
v 0.434334 0.919140 -0.565666
v 0.565666 0.919140 -0.565666
v 0.565666 0.919140 -0.434334
v 0.434334 0.919140 -0.434334
v 0.500000 0.919140 -0.407232
v 0.500000 0.919140 -0.592768
v 0.407232 0.919140 -0.500000
v 0.592768 0.919140 -0.500000
vt 0.360473 0.648706
vt 0.397662 0.901901
vt 0.418550 0.648706
vt 0.650858 0.358320
vt 0.397662 0.395510
vt 0.650858 0.416397
vt 0.941243 0.648706
vt 0.904054 0.395510
vt 0.883166 0.648706
vt 0.650858 0.939090
vt 0.904054 0.901901
vt 0.650858 0.881014
vt 0.376487 0.374335
vt 0.925228 0.923076
vt 0.475964 0.823599
vt 0.650858 0.866524
vt 0.433039 0.648706
vt 0.464330 0.835233
vt 0.837385 0.462178
vt 0.650858 0.430887
vt 0.650858 0.648706
vt 0.868676 0.648706
vt 0.464330 0.462178
vt 0.837385 0.835233
vt 0.376487 0.923076
vt 0.925228 0.374335
vt 0.825751 0.823599
vt 0.825751 0.473812
vt 0.475964 0.473812
vt 0.650858 0.963375
vt 0.965527 0.648705
vt 0.650858 0.334036
vt 0.336188 0.648706
vt 0.129539 0.946210
vt 0.102171 0.946210
vt 0.129541 0.592119
vt 0.184273 0.946210
vt 0.156906 0.946210
vt 0.184276 0.592120
vt 0.239008 0.946210
vt 0.211640 0.946210
vt 0.239012 0.592120
vt 0.074804 0.946210
vt 0.047437 0.946210
vt 0.074805 0.592119
vt 0.211644 0.592120
vt 0.102173 0.592119
vt 0.266375 0.946211
vt 0.266380 0.592120
vt 0.156908 0.592119
vt 0.047437 0.592119
vn 0.000000 -0.999996 -0.002939
vn -0.002939 -0.999996 0.000000
vn 0.000000 -0.999996 0.002939
vn 0.002939 -0.999996 0.000000
vn -0.111522 -0.656376 0.746145
vn 0.111523 -0.656376 -0.746146
vn 0.003728 -0.999986 0.003727
vn 0.077224 -0.942635 0.324769
vn -0.077224 -0.942636 -0.324768
vn 0.000000 -1.000000 0.000000
vn 0.077224 -0.942636 -0.324769
vn -0.077224 -0.942635 0.324769
vn -0.746146 -0.656376 -0.111522
vn 0.746145 -0.656377 0.111522
vn -0.324770 -0.942635 0.077223
vn 0.324768 -0.942636 -0.077224
vn -0.003728 -0.999986 0.003727
vn 0.324768 -0.942636 0.077224
vn -0.111523 -0.656376 -0.746145
vn -0.324771 -0.942635 -0.077224
vn 0.746145 -0.656376 -0.111522
vn 0.111522 -0.656376 0.746145
vn -0.746145 -0.656376 0.111522
vn 0.000000 0.999996 -0.002939
vn -0.002939 0.999996 0.000000
vn 0.000000 0.999996 0.002939
vn 0.002939 0.999996 0.000000
vn -0.111522 0.656376 0.746145
vn 0.111523 0.656376 -0.746146
vn 0.003728 0.999986 0.003728
vn 0.067500 0.962161 0.263987
vn -0.067500 0.962159 -0.263995
vn 0.000000 1.000000 0.000000
vn 0.003728 0.999986 -0.003727
vn 0.077224 0.942636 -0.324769
vn -0.002863 0.999995 -0.000920
vn -0.077224 0.942635 0.324769
vn 0.002863 0.999995 0.000920
vn -0.746146 0.656376 -0.111522
vn 0.746145 0.656377 0.111522
vn -0.263994 0.962159 0.067500
vn 0.263993 0.962160 -0.067500
vn 0.000919 0.999995 -0.002863
vn 0.324768 0.942636 0.077224
vn -0.000919 0.999995 0.002863
vn -0.110963 0.645717 -0.755471
vn -0.324771 0.942635 -0.077225
vn 0.755470 0.645718 -0.110963
vn 0.110963 0.645718 0.755471
vn -0.755470 0.645718 0.110963
vn -0.381509 0.000000 0.924365
vn -0.924365 0.000000 -0.381509
vn 0.381509 0.000000 -0.924365
vn 0.924365 0.000000 0.381509
vn -0.381509 0.000000 -0.924365
vn 0.381509 0.000000 0.924365
vn 0.924365 0.000000 -0.381509
vn -0.924365 0.000000 0.381509
vn -0.000919 -0.999995 -0.002863
vn -0.002863 -0.999995 0.000920
vn 0.000919 -0.999995 0.002863
vn 0.002863 -0.999995 -0.000920
vn -0.110963 -0.645718 0.755471
vn 0.110963 -0.645718 -0.755470
vn 0.067500 -0.962157 0.264004
vn -0.067499 -0.962159 -0.263995
vn -0.003728 -0.999986 -0.003727
vn 0.003728 -0.999986 -0.003727
vn 0.067499 -0.962159 -0.263995
vn -0.002863 -0.999995 -0.000920
vn -0.067500 -0.962158 0.264000
vn 0.002863 -0.999995 0.000920
vn -0.755470 -0.645718 -0.110963
vn 0.755470 -0.645718 0.110963
vn -0.263994 -0.962159 0.067500
vn 0.263993 -0.962160 -0.067499
vn 0.000919 -0.999995 -0.002863
vn 0.263993 -0.962160 0.067500
vn -0.000919 -0.999995 0.002863
vn -0.110963 -0.645718 -0.755470
vn -0.263993 -0.962160 -0.067500
vn 0.755470 -0.645718 -0.110963
vn 0.110963 -0.645719 0.755470
vn -0.755470 -0.645718 0.110963
vn -0.000919 0.999995 -0.002863
vn -0.002863 0.999995 0.000920
vn 0.000919 0.999995 0.002863
vn 0.002863 0.999995 -0.000920
vn -0.110963 0.645719 0.755470
vn 0.110963 0.645717 -0.755471
vn 0.077224 0.942635 0.324769
vn -0.077224 0.942635 -0.324769
vn -0.003728 0.999986 -0.003728
vn 0.067499 0.962160 -0.263993
vn -0.067500 0.962159 0.263994
vn -0.755470 0.645718 -0.110963
vn 0.755470 0.645718 0.110963
vn -0.324771 0.942635 0.077225
vn 0.324768 0.942636 -0.077224
vn -0.003728 0.999986 0.003727
vn 0.263993 0.962160 0.067499
vn -0.111523 0.656376 -0.746146
vn -0.263993 0.962160 -0.067499
vn 0.746145 0.656377 -0.111522
vn 0.111522 0.656376 0.746145
vn -0.746145 0.656376 0.111522
s off
f 20/1/1 1/2/1 18/3/1
f 14/4/2 4/5/2 12/6/2
f 21/7/3 3/8/3 19/9/3
f 15/10/4 2/11/4 13/12/4
f 4/5/5 14/4/5 51/13/5
f 2/11/6 15/10/6 53/14/6
f 22/15/7 11/16/7 16/17/7
f 5/18/8 13/12/8 11/16/8
f 7/19/9 12/6/9 10/20/9
f 9/21/10 17/22/10 10/20/10
f 16/17/10 9/21/10 10/20/10
f 12/6/11 8/23/11 10/20/11
f 1/2/2 15/10/2 13/12/2
f 13/12/12 6/24/12 11/16/12
f 3/8/4 14/4/4 12/6/4
f 1/2/13 20/1/13 54/25/13
f 3/8/14 21/7/14 52/26/14
f 6/24/15 19/9/15 17/22/15
f 8/23/16 18/3/16 16/17/16
f 11/16/17 23/27/17 17/22/17
f 2/11/1 21/7/1 19/9/1
f 18/3/18 5/18/18 16/17/18
f 4/5/3 20/1/3 18/3/3
f 15/10/19 1/2/19 54/25/19
f 19/9/20 7/19/20 17/22/20
f 21/7/21 2/11/21 53/14/21
f 14/4/22 3/8/22 52/26/22
f 20/1/23 4/5/23 51/13/23
f 49/1/24 47/3/24 26/2/24
f 41/4/25 39/6/25 29/5/25
f 50/7/26 48/9/26 28/8/26
f 42/10/27 40/12/27 27/11/27
f 29/5/28 51/13/28 41/4/28
f 27/11/29 53/14/29 42/10/29
f 55/15/30 45/17/30 38/16/30
f 31/18/31 55/15/31 38/16/31
f 33/19/32 57/28/32 37/20/32
f 36/21/33 37/20/33 46/22/33
f 45/17/34 58/29/34 37/20/34
f 39/6/35 37/20/35 34/23/35
f 26/2/36 31/18/36 40/12/36
f 40/12/37 38/16/37 32/24/37
f 28/8/38 33/19/38 39/6/38
f 26/2/39 54/25/39 49/1/39
f 28/8/40 52/26/40 50/7/40
f 32/24/41 56/27/41 46/22/41
f 34/23/42 58/29/42 45/17/42
f 38/16/33 36/21/33 46/22/33
f 27/11/43 32/24/43 48/9/43
f 47/3/44 45/17/44 31/18/44
f 29/5/45 34/23/45 47/3/45
f 42/10/46 30/30/46 54/25/46
f 48/9/47 46/22/47 33/19/47
f 50/7/48 43/31/48 53/14/48
f 41/4/49 35/32/49 52/26/49
f 49/1/50 44/33/50 51/13/50
f 68/34/51 72/35/51 65/36/51
f 69/37/52 74/38/52 64/39/52
f 70/40/53 71/41/53 63/42/53
f 67/43/54 73/44/54 66/45/54
f 71/41/55 69/37/55 62/46/55
f 72/35/56 67/43/56 61/47/56
f 73/48/57 70/40/57 60/49/57
f 74/38/58 68/34/58 59/50/58
f 1/2/59 5/18/59 18/3/59
f 4/5/60 8/23/60 12/6/60
f 3/8/61 7/19/61 19/9/61
f 2/11/62 6/24/62 13/12/62
f 14/4/63 35/32/63 51/13/63
f 15/10/64 30/30/64 53/14/64
f 11/16/10 9/21/10 16/17/10
f 22/15/65 5/18/65 11/16/65
f 24/28/66 7/19/66 10/20/66
f 17/22/67 24/28/67 10/20/67
f 25/29/68 16/17/68 10/20/68
f 8/23/69 25/29/69 10/20/69
f 5/18/70 1/2/70 13/12/70
f 6/24/71 23/27/71 11/16/71
f 7/19/72 3/8/72 12/6/72
f 20/1/73 44/33/73 54/25/73
f 21/7/74 43/31/74 52/26/74
f 23/27/75 6/24/75 17/22/75
f 25/29/76 8/23/76 16/17/76
f 9/21/10 11/16/10 17/22/10
f 6/24/77 2/11/77 19/9/77
f 5/18/78 22/15/78 16/17/78
f 8/23/79 4/5/79 18/3/79
f 30/30/80 15/10/80 54/25/80
f 7/19/81 24/28/81 17/22/81
f 43/31/82 21/7/82 53/14/82
f 35/32/83 14/4/83 52/26/83
f 44/33/84 20/1/84 51/13/84
f 47/3/85 31/18/85 26/2/85
f 39/6/86 34/23/86 29/5/86
f 48/9/87 33/19/87 28/8/87
f 40/12/88 32/24/88 27/11/88
f 51/13/89 35/32/89 41/4/89
f 53/14/90 30/30/90 42/10/90
f 45/17/33 36/21/33 38/16/33
f 40/12/91 31/18/91 38/16/91
f 39/6/92 33/19/92 37/20/92
f 37/20/93 57/28/93 46/22/93
f 36/21/33 45/17/33 37/20/33
f 37/20/94 58/29/94 34/23/94
f 42/10/25 26/2/25 40/12/25
f 38/16/95 56/27/95 32/24/95
f 41/4/27 28/8/27 39/6/27
f 54/25/96 44/33/96 49/1/96
f 52/26/97 43/31/97 50/7/97
f 48/9/98 32/24/98 46/22/98
f 47/3/99 34/23/99 45/17/99
f 56/27/100 38/16/100 46/22/100
f 50/7/24 27/11/24 48/9/24
f 45/17/101 55/15/101 31/18/101
f 49/1/26 29/5/26 47/3/26
f 26/2/102 42/10/102 54/25/102
f 46/22/103 57/28/103 33/19/103
f 27/11/104 50/7/104 53/14/104
f 28/8/105 41/4/105 52/26/105
f 29/5/106 49/1/106 51/13/106
f 72/35/51 61/47/51 65/36/51
f 74/38/52 59/50/52 64/39/52
f 71/41/53 62/46/53 63/42/53
f 73/44/54 60/51/54 66/45/54
f 69/37/55 64/39/55 62/46/55
f 67/43/56 66/45/56 61/47/56
f 70/40/57 63/42/57 60/49/57
f 68/34/58 65/36/58 59/50/58
